<?xml version="1.0" encoding="UTF-8" standalone="no"?>
<!DOCTYPE svg PUBLIC "-//W3C//DTD SVG 1.1//EN" "http://www.w3.org/Graphics/SVG/1.1/DTD/svg11.dtd">
<svg width="100%" height="100%" viewBox="0 0 1080 1080" version="1.1" xmlns="http://www.w3.org/2000/svg" xmlns:xlink="http://www.w3.org/1999/xlink" xml:space="preserve" xmlns:serif="http://www.serif.com/" style="fill-rule:evenodd;clip-rule:evenodd;stroke-linejoin:round;stroke-miterlimit:1.41421;">
    <g transform="matrix(0.589987,0.589987,-0.621452,0.621452,84.3871,33.92)">
        <path d="M209.812,103.512C209.812,87.989 196.538,75.387 180.187,75.387L120.938,75.387C104.587,75.387 91.313,87.989 91.313,103.512L91.313,159.762C91.313,175.284 104.587,187.887 120.938,187.887L180.187,187.887C196.538,187.887 209.812,175.284 209.812,159.762L209.812,103.512Z" style="fill:rgb(255,97,46);"/>
    </g>
    <g transform="matrix(0.589987,0.589987,-0.621452,0.621452,69.5563,171.106)">
        <path d="M209.812,103.512C209.812,87.989 196.538,75.387 180.187,75.387L120.938,75.387C104.587,75.387 91.313,87.989 91.313,103.512L91.313,159.762C91.313,175.284 104.587,187.887 120.938,187.887L180.187,187.887C196.538,187.887 209.812,175.284 209.812,159.762L209.812,103.512Z" style="fill:rgb(255,97,46);"/>
    </g>
    <g transform="matrix(0.700648,0.700648,-0.738015,0.738015,857.169,733.602)">
        <path d="M209.812,103.512C209.812,87.989 196.538,75.387 180.187,75.387L120.938,75.387C104.587,75.387 91.313,87.989 91.313,103.512L91.313,159.762C91.313,175.284 104.587,187.887 120.938,187.887L180.187,187.887C196.538,187.887 209.812,175.284 209.812,159.762L209.812,103.512Z" style="fill:rgb(255,97,46);"/>
    </g>
    <g transform="matrix(0.983311,0.983311,-0.621452,0.621452,82.2531,-127.234)">
        <path d="M209.812,103.512C209.812,87.989 201.848,75.387 192.037,75.387L109.088,75.387C99.277,75.387 91.313,87.989 91.313,103.512L91.313,159.762C91.313,175.284 99.277,187.887 109.088,187.887L192.037,187.887C201.848,187.887 209.812,175.284 209.812,159.762L209.812,103.512Z" style="fill:rgb(255,97,46);"/>
    </g>
    <g transform="matrix(0.44249,0.44249,-0.466089,0.466089,147.938,153.853)">
        <path d="M209.812,103.512C209.812,87.989 196.538,75.387 180.187,75.387L120.938,75.387C104.587,75.387 91.313,87.989 91.313,103.512L91.313,159.762C91.313,175.284 104.587,187.887 120.938,187.887L180.187,187.887C196.538,187.887 209.812,175.284 209.812,159.762L209.812,103.512Z" style="fill:rgb(255,97,46);"/>
    </g>
    <g transform="matrix(0.44249,0.44249,-0.466089,0.466089,367.106,45.5056)">
        <path d="M209.812,103.512C209.812,87.989 196.538,75.387 180.187,75.387L120.938,75.387C104.587,75.387 91.313,87.989 91.313,103.512L91.313,159.762C91.313,175.284 104.587,187.887 120.938,187.887L180.187,187.887C196.538,187.887 209.812,175.284 209.812,159.762L209.812,103.512Z" style="fill:rgb(255,97,46);"/>
    </g>
    <g transform="matrix(1.21025,1.21025,-0.409755,0.409755,134.257,-170.248)">
        <path d="M209.812,103.512C209.812,87.989 205.546,75.387 200.29,75.387L100.835,75.387C95.579,75.387 91.313,87.989 91.313,103.512L91.313,159.762C91.313,175.284 95.579,187.887 100.835,187.887L200.29,187.887C205.546,187.887 209.812,175.284 209.812,159.762L209.812,103.512Z" style="fill:rgb(255,97,46);"/>
    </g>
    <g transform="matrix(0.44249,0.44249,-0.466089,0.466089,180.284,244.803)">
        <path d="M209.812,103.512C209.812,87.989 196.538,75.387 180.187,75.387L120.938,75.387C104.587,75.387 91.313,87.989 91.313,103.512L91.313,159.762C91.313,175.284 104.587,187.887 120.938,187.887L180.187,187.887C196.538,187.887 209.812,175.284 209.812,159.762L209.812,103.512Z" style="fill:rgb(255,97,46);"/>
    </g>
    <g transform="matrix(0.44249,0.44249,-0.466089,0.466089,248.343,182.331)">
        <path d="M209.812,103.512C209.812,87.989 196.538,75.387 180.187,75.387L120.938,75.387C104.587,75.387 91.313,87.989 91.313,103.512L91.313,159.762C91.313,175.284 104.587,187.887 120.938,187.887L180.187,187.887C196.538,187.887 209.812,175.284 209.812,159.762L209.812,103.512Z" style="fill:rgb(255,97,46);"/>
    </g>
    <g transform="matrix(0.557052,0.557052,-0.586761,0.586761,956.463,853.236)">
        <path d="M209.812,103.512C209.812,87.989 196.538,75.387 180.187,75.387L120.938,75.387C104.587,75.387 91.313,87.989 91.313,103.512L91.313,159.762C91.313,175.284 104.587,187.887 120.938,187.887L180.187,187.887C196.538,187.887 209.812,175.284 209.812,159.762L209.812,103.512Z" style="fill:rgb(255,97,46);"/>
    </g>
    <g transform="matrix(0.539455,-0.539455,0.554868,0.554868,-83.5275,234.82)">
        <rect x="281.812" y="213.387" width="108" height="94.5" style="fill:rgb(255,97,46);"/>
    </g>
    <g transform="matrix(0.0672763,0.0672763,-0.582612,0.582612,841.938,-239.702)">
        <path d="M542.813,761.262C542.813,755.26 500.613,750.387 448.635,750.387L224.49,750.387C172.512,750.387 130.313,755.26 130.313,761.262L130.313,783.012C130.313,789.014 172.512,793.887 224.49,793.887L448.635,793.887C500.613,793.887 542.813,789.014 542.813,783.012L542.813,761.262Z" style="fill:rgb(255,97,46);"/>
    </g>
    <g transform="matrix(0.0672763,0.0672763,-0.582612,0.582612,738.122,-238.466)">
        <path d="M542.813,761.262C542.813,755.26 500.613,750.387 448.635,750.387L224.49,750.387C172.512,750.387 130.313,755.26 130.313,761.262L130.313,783.012C130.313,789.014 172.512,793.887 224.49,793.887L448.635,793.887C500.613,793.887 542.813,789.014 542.813,783.012L542.813,761.262Z" style="fill:rgb(255,97,46);"/>
    </g>
    <g transform="matrix(0.0672763,0.0672763,-0.582612,0.582612,483.526,-395.426)">
        <path d="M542.813,761.262C542.813,755.26 500.613,750.387 448.635,750.387L224.49,750.387C172.512,750.387 130.313,755.26 130.313,761.262L130.313,783.012C130.313,789.014 172.512,793.887 224.49,793.887L448.635,793.887C500.613,793.887 542.813,789.014 542.813,783.012L542.813,761.262Z" style="fill:white;"/>
    </g>
    <g transform="matrix(0.0672763,0.0672763,-0.582612,0.582612,579.926,-190.266)">
        <path d="M542.813,761.262C542.813,755.26 500.613,750.387 448.635,750.387L224.49,750.387C172.512,750.387 130.313,755.26 130.313,761.262L130.313,783.012C130.313,789.014 172.512,793.887 224.49,793.887L448.635,793.887C500.613,793.887 542.813,789.014 542.813,783.012L542.813,761.262Z" style="fill:white;"/>
    </g>
    <g transform="matrix(0.582612,0.582612,-0.582612,0.582612,684.422,-548.794)">
        <path d="M535.313,809.262C535.313,805.743 532.456,802.887 528.937,802.887L156.187,802.887C152.669,802.887 149.812,805.743 149.812,809.262L149.812,822.012C149.812,825.53 152.669,828.387 156.187,828.387L528.937,828.387C532.456,828.387 535.313,825.53 535.313,822.012L535.313,809.262Z" style="fill:rgb(255,97,46);"/>
    </g>
    <g transform="matrix(0.448696,0.448696,-0.691889,0.691889,1370.3,77.337)">
        <path d="M535.313,809.262C535.313,805.743 530.908,802.887 525.482,802.887L159.643,802.887C154.217,802.887 149.812,805.743 149.812,809.262L149.812,822.012C149.812,825.53 154.217,828.387 159.643,828.387L525.482,828.387C530.908,828.387 535.313,825.53 535.313,822.012L535.313,809.262Z" style="fill:rgb(255,97,46);"/>
    </g>
    <g transform="matrix(0.346064,0.346064,-0.667038,0.667038,1394.93,250.091)">
        <path d="M535.313,809.262C535.313,805.743 529.807,802.887 523.025,802.887L162.1,802.887C155.318,802.887 149.812,805.743 149.812,809.262L149.812,822.012C149.812,825.53 155.318,828.387 162.1,828.387L523.025,828.387C529.807,828.387 535.313,825.53 535.313,822.012L535.313,809.262Z" style="fill:rgb(255,97,46);"/>
    </g>
    <g transform="matrix(0.151131,0.151131,-0.582612,0.582612,936.509,-338.316)">
        <path d="M535.313,809.262C535.313,805.743 524.301,802.887 510.737,802.887L174.388,802.887C160.824,802.887 149.812,805.743 149.812,809.262L149.812,822.012C149.812,825.53 160.824,828.387 174.388,828.387L510.737,828.387C524.301,828.387 535.313,825.53 535.313,822.012L535.313,809.262Z" style="fill:rgb(255,97,46);"/>
    </g>
    <g transform="matrix(0.151131,0.151131,-0.582612,0.582612,714.046,-432.244)">
        <path d="M535.313,809.262C535.313,805.743 524.301,802.887 510.737,802.887L174.388,802.887C160.824,802.887 149.812,805.743 149.812,809.262L149.812,822.012C149.812,825.53 160.824,828.387 174.388,828.387L510.737,828.387C524.301,828.387 535.313,825.53 535.313,822.012L535.313,809.262Z" style="fill:white;"/>
    </g>
    <g transform="matrix(0.0604526,0.0604526,-0.582612,0.582612,693.025,-454.501)">
        <path d="M535.313,809.262C535.313,805.743 507.783,802.887 473.873,802.887L211.252,802.887C177.342,802.887 149.812,805.743 149.812,809.262L149.812,822.012C149.812,825.53 177.342,828.387 211.252,828.387L473.873,828.387C507.783,828.387 535.313,825.53 535.313,822.012L535.313,809.262Z" style="fill:white;"/>
    </g>
    <g transform="matrix(0.0604526,0.0604526,-0.582612,0.582612,547.189,-292.597)">
        <path d="M535.313,809.262C535.313,805.743 507.783,802.887 473.873,802.887L211.252,802.887C177.342,802.887 149.812,805.743 149.812,809.262L149.812,822.012C149.812,825.53 177.342,828.387 211.252,828.387L473.873,828.387C507.783,828.387 535.313,825.53 535.313,822.012L535.313,809.262Z" style="fill:white;"/>
    </g>
    <g transform="matrix(0.0717914,0.0717914,-0.691889,0.691889,1356.87,316.976)">
        <path d="M535.313,809.262C535.313,805.743 507.783,802.887 473.873,802.887L211.252,802.887C177.342,802.887 149.812,805.743 149.812,809.262L149.812,822.012C149.812,825.53 177.342,828.387 211.252,828.387L473.873,828.387C507.783,828.387 535.313,825.53 535.313,822.012L535.313,809.262Z" style="fill:white;"/>
    </g>
    <g transform="matrix(0.0717914,0.0717914,-0.691889,0.691889,1395.03,353.669)">
        <path d="M535.313,809.262C535.313,805.743 507.783,802.887 473.873,802.887L211.252,802.887C177.342,802.887 149.812,805.743 149.812,809.262L149.812,822.012C149.812,825.53 177.342,828.387 211.252,828.387L473.873,828.387C507.783,828.387 535.313,825.53 535.313,822.012L535.313,809.262Z" style="fill:white;"/>
    </g>
    <g transform="matrix(0.0604526,0.0604526,-0.582612,0.582612,506.404,-329.674)">
        <path d="M535.313,809.262C535.313,805.743 507.783,802.887 473.873,802.887L211.252,802.887C177.342,802.887 149.812,805.743 149.812,809.262L149.812,822.012C149.812,825.53 177.342,828.387 211.252,828.387L473.873,828.387C507.783,828.387 535.313,825.53 535.313,822.012L535.313,809.262Z" style="fill:white;"/>
    </g>
    <g transform="matrix(0.823937,0,0,0.823937,368.32,-566.207)">
        <ellipse cx="226.312" cy="868.887" rx="43.5" ry="43.5" style="fill:rgb(255,97,46);"/>
    </g>
    <g transform="matrix(0.978479,0,0,0.978479,542.69,2.32043)">
        <ellipse cx="226.312" cy="868.887" rx="43.5" ry="43.5" style="fill:rgb(255,97,46);"/>
    </g>
    <g transform="matrix(0.0672763,0.0672763,-0.582612,0.582612,608.036,-47.2925)">
        <path d="M542.813,761.262C542.813,755.26 500.613,750.387 448.635,750.387L224.49,750.387C172.512,750.387 130.313,755.26 130.313,761.262L130.313,783.012C130.313,789.014 172.512,793.887 224.49,793.887L448.635,793.887C500.613,793.887 542.813,789.014 542.813,783.012L542.813,761.262Z" style="fill:white;"/>
    </g>
    <g transform="matrix(0.079895,0.079895,-0.691889,0.691889,1392.33,253.08)">
        <path d="M542.813,761.262C542.813,755.26 500.613,750.387 448.635,750.387L224.49,750.387C172.512,750.387 130.313,755.26 130.313,761.262L130.313,783.012C130.313,789.014 172.512,793.887 224.49,793.887L448.635,793.887C500.613,793.887 542.813,789.014 542.813,783.012L542.813,761.262Z" style="fill:white;"/>
    </g>
    <g transform="matrix(0.0672763,0.0672763,-0.582612,0.582612,924.744,-383.067)">
        <path d="M542.813,761.262C542.813,755.26 500.613,750.387 448.635,750.387L224.49,750.387C172.512,750.387 130.313,755.26 130.313,761.262L130.313,783.012C130.313,789.014 172.512,793.887 224.49,793.887L448.635,793.887C500.613,793.887 542.813,789.014 542.813,783.012L542.813,761.262Z" style="fill:white;"/>
    </g>
    <g transform="matrix(0.256033,0.256033,-0.341113,0.341113,591.013,-260.434)">
        <path d="M542.813,761.262C542.813,755.26 536.32,750.387 528.324,750.387L144.801,750.387C136.805,750.387 130.313,755.26 130.313,761.262L130.313,783.012C130.313,789.014 136.805,793.887 144.801,793.887L528.324,793.887C536.32,793.887 542.813,789.014 542.813,783.012L542.813,761.262Z" style="fill:white;"/>
    </g>
    <g transform="matrix(0.394991,0.394991,-0.568402,0.568402,646.805,-322.971)">
        <rect x="104.812" y="783.387" width="88.5" height="61.5" style="fill:white;"/>
    </g>
    <g transform="matrix(0.638711,0,0,0.624195,-210.452,-172.182)">
        <ellipse cx="447.563" cy="828.387" rx="32.25" ry="33" style="fill:white;"/>
    </g>
    <g transform="matrix(0.758511,0,0,0.741272,623.175,397.897)">
        <ellipse cx="447.563" cy="828.387" rx="32.25" ry="33" style="fill:white;"/>
    </g>
    <g transform="matrix(0.501369,0.501369,-0.678323,0.678323,1493.02,47.5774)">
        <rect x="142.312" y="859.887" width="69" height="51" style="fill:white;"/>
    </g>
    <g transform="matrix(0.501369,0.501369,-0.678323,0.678323,1440.18,-2.81431)">
        <rect x="142.312" y="859.887" width="69" height="51" style="fill:white;"/>
    </g>
    <g transform="matrix(0.581545,0,0,0.813485,758.866,-426.021)">
        <rect x="142.312" y="859.887" width="69" height="51" style="fill:white;"/>
    </g>
    <g transform="matrix(0.581545,0,0,0.813485,758.866,-367.508)">
        <rect x="142.312" y="859.887" width="69" height="51" style="fill:white;"/>
    </g>
    <g transform="matrix(0.581545,0,0,0.813485,176.866,-10.5205)">
        <rect x="142.312" y="859.887" width="69" height="51" style="fill:white;"/>
    </g>
    <g transform="matrix(0.581545,0,0,0.813485,176.866,47.9918)">
        <rect x="142.312" y="859.887" width="69" height="51" style="fill:white;"/>
    </g>
    <g transform="matrix(0.0717914,0.0717914,-0.691889,0.691889,1433.2,390.362)">
        <path d="M535.313,809.262C535.313,805.743 507.783,802.887 473.873,802.887L211.252,802.887C177.342,802.887 149.812,805.743 149.812,809.262L149.812,822.012C149.812,825.53 177.342,828.387 211.252,828.387L473.873,828.387C507.783,828.387 535.313,825.53 535.313,822.012L535.313,809.262Z" style="fill:white;"/>
    </g>
</svg>
